<svg xmlns="http://www.w3.org/2000/svg" viewBox="0 0 130 130"><defs><style>.cls-1{fill:#82a5c4;}.cls-2{fill:#420a09;}.cls-3{fill:#fff;}</style></defs><title>Artboard 1fb_icon</title><g id="blue"><circle class="cls-1" cx="65" cy="65" r="62"/><path class="cls-1" d="M65,4A61,61,0,1,1,4,65,61.06,61.06,0,0,1,65,4m0-2a63,63,0,1,0,63,63A63,63,0,0,0,65,2Z"/></g><g id="teal"><circle class="cls-2" cx="65" cy="65" r="58"/></g><g id="Layer_3" data-name="Layer 3"><g id="Layer_4" data-name="Layer 4"><path class="cls-3" d="M55.19,65.51l-6.21-1V55.13l5.48-1.42C57,34.56,58.94,32.83,76.64,34.48V43.6c-9.09,2.46-9.09,2.46-8.37,10.3l8.64.91c-.19,3.16-.39,6.37-.59,9.7l-8.17.84V95.56h-13Z"/></g></g></svg>