<svg xmlns="http://www.w3.org/2000/svg" viewBox="0 0 130 130"><defs><style>.cls-1{fill:#82a5c4;}.cls-2{fill:#fff;}.cls-3{fill:#420a09;}.cls-4{fill:#0f394b;}</style></defs><title>Artboard 1insta_logo</title><g id="blue"><circle class="cls-1" cx="65" cy="65" r="62"/><path class="cls-1" d="M65,4A61,61,0,1,1,4,65,61.06,61.06,0,0,1,65,4m0-2a63,63,0,1,0,63,63A63,63,0,0,0,65,2Z"/></g><g id="red"><circle class="cls-2" cx="65" cy="65" r="59"/><path class="cls-3" d="M65,7A58,58,0,1,1,7,65,58.07,58.07,0,0,1,65,7m0-2a60,60,0,1,0,60,60A60,60,0,0,0,65,5Z"/></g><g id="teal"><circle class="cls-4" cx="65" cy="65" r="58"/></g><g id="Layer_4" data-name="Layer 4"><path d="M65.06,40c-5.27,0-10.54,0-15.82,0-5.09,0-7.58,2.57-7.56,7.7,0,10.73,0,21.47,0,32.2,0,5.06,2.3,7.67,7.53,7.63q16.11-.1,32.21,0c5.2,0,7.6-2.5,7.6-7.59,0-10.73.1-21.47,0-32.2-.07-5.56-2.42-7.66-8.12-7.75C75.61,40,70.34,40,65.06,40Z"/><path class="cls-2" d="M65.06,40c5.28,0,10.55-.07,15.82,0,5.7.09,8.05,2.19,8.12,7.75.13,10.73,0,21.47,0,32.2,0,5.09-2.4,7.62-7.6,7.59q-16.11-.12-32.21,0c-5.23,0-7.54-2.57-7.53-7.63,0-10.73,0-21.47,0-32.2,0-5.13,2.47-7.68,7.56-7.7C54.52,40,59.79,40,65.06,40ZM50.43,59.71,48,60.2c0,6.58,0,13.17.09,19.75,0,.54,1.31,1.5,2,1.5,10.68.1,21.35.07,31.95.07V60.05L80.38,59c.25,12.3-4.45,20.44-17,19.3C53.24,77.37,50.21,69.4,50.43,59.71Zm24.18,4.12a9.31,9.31,0,0,0-9.07-9A9.21,9.21,0,0,0,56.19,64a9,9,0,0,0,9.27,8.66C70.36,72.65,74.61,68.53,74.61,63.83Zm7.37-17H74.61v7.35C83,55.7,83.76,54.85,82,46.86Z"/><path class="cls-4" d="M50.43,59.71c-.22,9.69,2.81,17.66,13,18.58,12.51,1.14,17.21-7,17-19.3l1.72,1.06V81.52c-10.6,0-21.27,0-31.95-.07-.71,0-2-1-2-1.5C48,73.37,48,66.78,48,60.2Z"/><path class="cls-4" d="M74.61,63.83c0,4.7-4.25,8.82-9.15,8.87A9,9,0,0,1,56.19,64a9.21,9.21,0,0,1,9.35-9.24A9.31,9.31,0,0,1,74.61,63.83Z"/><path class="cls-4" d="M82,46.86c1.78,8,1,8.84-7.37,7.35V46.86Z"/></g></svg>