<?xml version="1.0" encoding="utf-8"?>
<!-- Generator: Adobe Illustrator 23.0.2, SVG Export Plug-In . SVG Version: 6.00 Build 0)  -->
<svg version="1.1" xmlns="http://www.w3.org/2000/svg" xmlns:xlink="http://www.w3.org/1999/xlink" x="0px" y="0px"
	 viewBox="0 0 147 94" style="enable-background:new 0 0 147 94;" xml:space="preserve">
<style type="text/css">
	.st0{fill:#262626;}
	.st1{fill:#FBA91A;}
	.st2{fill:#FFFFFF;}
	.st3{fill:none;}
	.st4{font-family:'HelveticaNeue-Roman';}
	.st5{font-size:6px;}
</style>
<g id="Layer_2">
	<rect width="147" height="94"/>
</g>
<g id="Layer_1">
	<g>
		<path class="st0" d="M88.6,27.4c0.9-0.2,1.8-0.4,2.6-0.7c0-0.2,0-0.4,0-0.5c-0.6,0.3-1.3,0.5-2,0.6l-0.1-0.1c0.5-1,1-2,1.7-2.9
			c0-0.1-0.1-0.3-0.1-0.4c-0.9,1-1.5,2.2-2.1,3.4c-0.8,0.2-1.8,0.3-2.7,0.4V27c0.8-2.5,2-4.9,3.9-7c0-0.1-0.1-0.3-0.1-0.4
			c-1.9,2-3.1,4.4-3.9,6.9l-0.3,0.7c-0.9,0-1.6,0.1-2.4,0c0.6-1.4,1.3-2.7,1.5-4.2c0.7-1.9,1.9-3.8,3.1-5.4
			c-0.2,0.1-0.5,0.2-0.7,0.3c-0.3,0.5-0.7,1-1,1.5c-0.2,0.3-0.4,0.7-0.6,1c-0.7,1.3-1.4,2.7-1.6,4.2c-0.3,0.9-0.7,1.8-1.2,2.7
			c-0.7,0-1.4-0.1-2.1-0.1c-0.1-0.7,0.2-1.4,0.4-2c0.8-2,1.9-3.9,3.1-5.8c0.4-0.6,0.8-1.2,1.2-1.8c0-0.1,0-0.2,0-0.2l-0.4,0.2
			c-0.4,0.6-0.8,1.2-1.2,1.8c-1.4,2.1-2.6,4.3-3.3,6.7c-0.1,0.3-0.1,0.7-0.1,1c-0.7,0-1.3-0.1-2-0.2c-0.2-0.2,0-0.6,0-0.9
			c0.6-2.4,2-4.5,3.3-6.5c0,0,0,0,0,0c0,0,0,0,0,0.1l0-0.1c0,0,0,0,0,0c0,0,0,0,0,0h0c0,0-0.4,0.2-0.4,0.2c-1.2,1.7-2.2,3.4-2.9,5.3
			c-0.2,0.6-0.3,1.3-0.3,1.9c-0.8,0-1.6-0.2-2.3-0.2c-0.1-0.3,0-0.6,0.1-0.9c0.5-1.9,1.7-3.4,2.6-4.9c-0.2,0.1-0.4,0.2-0.6,0.3
			c-1.1,1.6-2,3.1-2.5,4.9l-0.1,0.6l-2.3,0c0.1-1.6,1.1-2.9,1.9-4.2l0.1-0.1c-0.2,0.1-0.4,0.2-0.6,0.3c-0.4,0.4-0.8,1.3-1,1.5
			c-0.4,0.8-0.8,1.6-0.8,2.5l-2.3,0.1c0.1-0.4,0.3-0.8,0.3-1c0.4-0.8,0.9-1.6,1.4-2.3c-0.2,0-0.4,0.1-0.6,0.2
			c-0.6,0.9-1.3,2-1.6,3.1c-0.7,0.2-1.2,0.1-1.9,0.2c0.2-0.6,0.5-1.1,0.8-1.6c0.2-0.3,0.4-0.7,0.6-1c-0.3,0.1-0.4,0.1-0.6,0.2
			c-0.3,0.3-0.5,0.9-0.7,1.3L67,27c-0.7,0.2-1.3,0.2-2,0.4l0.1-0.2c0.2-0.6,0.6-1.4,0.9-1.9c-0.3,0.1-0.4,0.1-0.6,0.2
			c-0.2,0.3-0.4,0.9-0.6,1.2l-0.3,0.9c-0.7,0.2-1.4,0.5-2.2,0.6c0.2-0.7,0.8-1.4,1.4-1.9l0.2-0.2l-0.7,0.2c-0.5,0.5-1.1,1.3-1.3,2
			c-0.5,0.2-1,0.2-1.5,0.3c0.1-0.7,1-1.5,1.5-1.9c-0.2,0.1-0.6,0.1-0.8,0.3c-0.3,0.2-0.7,0.7-0.9,1l-0.3,0.7c-0.4,0-0.8,0.1-1.2,0.1
			c0.3-0.5,1-1.2,1.5-1.5c-0.5,0-0.8,0.3-0.9,0.4l0,0c-0.3,0.1-0.9,1.3-1.6,1l0-0.1c0.5-0.3,0.9-0.7,1.4-1l0.1-0.1
			c3.9-2.2,8.1-3.7,12.2-5.3c2.6-0.9,5.3-1.7,7.8-2.8c0.3-0.1,0.6-0.3,0.9-0.4c2.1-1,4.2-2.2,5.7-3.8c1.4-2.8,0.4-4.7-1.7-6
			c-4.3-2.3-9.4-1.6-12.9-0.6l0.1,0c0.6,1.5,0.8,3.2,1,4.8c-0.6,0.7-1.3,1.4-2,2l-0.1-0.1c-0.2-2.1-0.4-4.2-0.9-6.2
			c-0.1,0-0.2,0.1-0.3,0.1c0.1,0.7,0.2,1.4,0.3,2.1c0.2,1.4,0.4,2.9,0.5,4.4c-0.6,0.5-1.2,1.1-1.8,1.5l0-0.1
			c0.2-2.1-0.5-5.8-0.6-6.7c-0.1,0.1-0.2,0.2-0.4,0.2c0.1,0.5,0.6,4.9,0.6,5.5l-0.1,1.5c-0.5,0.5-1.1,0.9-1.7,1.2l0-0.1
			c0.2-2.3-0.2-4.2-0.4-6.5c-0.1,0.3-0.2,0.4-0.3,0.6c0,0.3,0.1,1.2,0.2,1.7c0.2,1.5,0.2,3,0.1,4.5l-0.1,0.2l-1.6,1.1l0-0.1
			c0.3-1.6,0.1-3.2-0.1-4.7L63.3,16c0.3,1.6,0.3,3.1,0,4.7c-0.6,0.5-1.2,0.9-1.8,1.3c0.2-0.7,0.4-1.6,0.3-2.3
			c-0.1-0.5-0.2-0.8-0.2-1.2c-0.1,0.1-0.2,0.3-0.3,0.4c0,0.3,0.3,0.6,0.2,1c0,0.9-0.3,1.9-0.6,2.7l-1.3,1l0,0c0-1,0.2-2,0.4-3
			c-0.3,0.4-0.4,0.5-0.6,0.8l-0.2,2.6l-1.8,1.4c-0.2-0.7-0.1-1.3,0.2-2l-0.1,0.2l-0.4,0.4c-0.1,0.5-0.2,1.2-0.1,1.7l-1.6,1.3l0,0
			c0-0.6,0.2-1.1,0.5-1.5l0.1-0.3l-0.8,0.8c-0.1,0.5-0.2,0.9-0.2,1.4l-1.1,0.9l0,0l0.4-1.2c-0.2,0.1-0.5,0.5-0.6,0.5
			c-0.1,0.5-0.2,0.8-0.3,1.2L53,28.9c-1,0.3-2,0.7-2.9,1.1c1.4-1.3,2.6-2.6,4.2-3.9v-0.2c0.6-0.6,1.2-1.3,1.9-1.9
			c0.1-0.3,0.4-0.5,0.5-0.7c2.7-3.1,5.1-6.3,6.7-10.1c0.2-0.5,0.4-1,0.5-1.5c0.6-8.4-7-8.7-10.4-8.4c-1.9,0.3-2.1,0.9-2.7,1.1
			c0.4,0,1.6-0.5,2-0.4c0.5,0.8,1.3,1.6,2,2.1c0.5,0.5,0.9,1.2,1.2,1.8c-0.1,0.9-0.2,1.7-0.4,2.5c-0.4-0.8-0.8-1.6-1.4-2.3
			c-1-1.3-2.6-1.9-3.3-3.4c-0.1-0.1-0.1-0.2-0.2-0.3c-0.1,0.1-0.2,0.1-0.3,0.2c0.7,1.1,1.6,2.1,2.6,2.8c1.2,1.1,2,2.4,2.4,3.8L55,13
			c-0.9-1.3-1.8-2.8-3.2-3.7c-1.1-0.8-2.1-1.9-3.1-2.8l0,0.6c1.1,1.1,2.4,2.3,3.6,3.2c0.9,1,1.7,2.1,2.4,3.3
			c-0.1,0.7-0.3,1.4-0.5,2.1c-1.6-2-3-4.3-5.1-5.9l0,0.2l0.1,0.4c2,1.8,3.3,3.7,4.8,5.8c0,0.3-0.1,0.6-0.2,0.9
			c-0.1,0.3-0.2,0.6-0.3,0.9c-0.2-0.3-0.4-0.6-0.6-0.9c-1-1.5-2-2.9-3.4-4.2c0,0.2,0,0.4,0,0.6c0.1,0.1,0.5,0.4,0.8,0.8
			c0.7,0.9,1.4,1.8,2.1,2.8c0.3,0.5,0.6,1,0.9,1.4c0,0.1-0.1,0.2-0.1,0.4c-0.1,0.1-0.1,0.3-0.1,0.4c-0.1,0.5-0.3,0.9-0.5,1.4
			c-0.6-1.2-1.3-2.4-2-3.6c-0.3-0.5-0.6-0.9-0.9-1.3c0,0.3,0,0.5,0.1,0.7c0.2,0.2,0.3,0.4,0.4,0.6c0.8,1.3,1.5,2.7,2.2,4.1
			c-0.2,0.6-0.5,1.3-0.8,1.9c-0.5-1.4-1-2.9-1.8-4.1l0,0.8c0.1,0.2,0.4,0.6,0.5,1c0.4,0.9,0.8,1.9,1.1,2.9L50.9,25h-0.1
			c-0.3-0.8-0.6-1.7-1.2-2.4c0,0.2,0,0.4-0.1,0.6c0.5,0.8,0.8,1.5,1,2.4L50,27c-0.3-0.5-0.5-1-0.7-1.5c0,0.2-0.1,0.4-0.1,0.6
			l0.6,1.5L49,28.7c-0.2-0.3-0.3-0.7-0.4-1.1l-0.1,0.2c-0.1,0.2-0.1,0.3-0.2,0.5l0.3,1l-1.3,2.2c-0.3,0.2-0.7,0.6-1.1,0.7
			c0-1-0.1-2.1,0.5-2.9l0.9-0.9c0-0.2,0.1-0.5,0.1-0.7c-0.3,0.6-1.1,1-1.5,1.7h0l0-0.8c0.4-0.9,1.4-1.4,1.7-2.4c0-0.3,0-0.3,0.1-0.7
			c0-0.2,0.1-0.9,0.1-0.7c-0.2,1-1,2.4-1.8,3l0-1.1c0.4-1.1,1.6-1.9,1.9-3c0-0.4,0-0.7,0.1-1.2c-0.2,0.4-0.3,0.8-0.5,1.2
			c-0.4,0.9-1.1,1.3-1.5,2.2l0,0l-0.1-1.6c0.9-1.1,1.7-2.1,2.3-3.4c0-0.4,0-0.8,0.1-1.2c-0.5,1.5-1.4,2.8-2.5,4l-0.2-1.7
			c1-1.3,2.1-2.6,2.7-4.1c0-0.4,0-0.7,0-0.9h0c0-0.2,0,0.1,0-0.1c0,0,0,0.1,0,0.1c-0.1,0.2-0.2,0.5-0.3,0.7
			c-0.6,1.3-1.5,2.6-2.5,3.7l-0.3-1.9c0.6-0.8,1.2-1.7,1.8-2.5c0.5-0.7,1-1.5,1.4-2.3l0-0.8c-0.2,0.3-0.4,0.8-0.6,1.1
			c-0.4,0.7-0.8,1.3-1.2,1.9c-0.5,0.7-1,1.3-1.5,2h0l-0.4-1.5c0.2-0.1,0.3-0.3,0.4-0.5c1.3-1.4,2.3-3.3,3.3-5c0-0.2,0-0.5,0-0.8
			l-0.2,0.4c-1.1,1.9-2.1,4-3.6,5.5c0,0,0,0,0,0c0,0,0,0,0,0c-0.2-0.6-0.4-1.2-0.7-1.7c0.1-0.3,0.5-0.4,0.7-0.7
			c1.6-1.6,3-3.8,3.8-5.9c0-0.1,0-0.1,0-0.2c-0.1-0.1-0.2-0.1-0.2-0.2c-0.9,2.4-2.5,4.9-4.4,6.6c-0.3-0.5-0.7-1-0.9-1.5
			c1.7-1.8,3-3.8,4-6.1c-0.1-0.1-0.2-0.1-0.3-0.2c-0.9,2.1-2.2,4.1-3.8,5.9h-0.1c-0.4-0.6-0.8-1.1-1.2-1.7c1.5-1.6,2.4-3.3,3-5.3
			c-0.1-0.1-0.2-0.1-0.4-0.2c-0.6,1.7-1.3,3.4-2.5,4.7l-0.4,0.4l-1.2-1.4c1-1.4,1.5-2.9,1.8-4.5c-0.1,0-0.2-0.1-0.4-0.1
			C41.3,6.3,40.8,7.8,40,9l-0.1,0.1l-1.6-1.7c0.4-1,0.7-2,0.8-3.1c-0.1,0-0.2,0-0.4-0.1c-0.1,1-0.4,2-0.7,2.9h-0.1L36.6,6
			c0.2-0.6,0.3-1.3,0.3-2c-0.1,0-0.3,0-0.4,0c0,0.6,0,1.2-0.2,1.7h-0.1c-0.4-0.4-0.9-0.7-1.3-1.1C35,4.4,35,4.1,35,3.9
			c-0.1,0-0.3,0-0.4,0c0,0.2,0,0.4-0.1,0.5C34.3,4.2,34,4,33.8,3.8c-0.3,0-0.6,0-0.8,0c0.3,0.2,0.5,0.4,0.8,0.6
			c-2.3,0.5-4.8,0.8-7.3,0.4c-0.1,0-0.1,0-0.2,0.1C26.1,5,26.1,5.1,26,5.2c2.7,0.5,5.6,0.1,8.2-0.4c0.6,0.5,1.2,0.8,1.7,1.4
			c-2.4-0.3-4.8,0.2-7,0.8c-1.5,0.3-3.3,0.5-5,0.5c-0.1,0.1-0.2,0.3-0.2,0.4c2.2,0,4.5-0.3,6.6-0.8c2-0.6,4.2-0.7,6.2-0.4
			C37,7,37.5,7.5,37.9,7.9c-2-0.1-4.2,0.1-6,0.7C30,9.2,28,9.8,25.9,9.7c-1.6-0.8-3.5-0.9-5.3-0.5c-3.1,0.8-3.3,1.8-3.9,3.4
			c-0.2,1-0.2,2.1,0,3.1L15.3,15c-0.1,0.1-0.1,0.3-0.2,0.4c0.6,0.2,1.2,0.5,1.8,0.8l0.2,0.4l0.1-0.2c0.2,0,0.5,0.2,0.7,0.3
			c0,0.4-0.4,0.9-0.2,1.3c0.4,0.5,1,0.8,1.5,1l0.1-0.1c-0.1-0.4,0.1-0.9,0.2-1.2c0.4,0.1,0.7,0.4,1,0.6v0.9c0.4,0.1,1,0,1.3,0
			c1.2,0.9,2.4,1.9,3.4,3.1c-0.3,0.1-0.6,0.1-1,0.1c-0.6,0.1-1.1,0.2-1.6,0.3c-1.1-0.8-2.2-1.6-3.4-2.3c-1.5-0.8-3-1.4-4.7-1.7
			c0,0.1,0,0.3,0,0.4c2.8,0.5,5.4,1.9,7.6,3.7v0.1c-0.8,0.2-1.4,0.5-2.2,0.7c-1.4-1.3-3.3-1.7-5.2-1.9c0,0.1,0,0.3,0.1,0.4
			c1.7,0.2,3.4,0.5,4.6,1.6v0.1c-0.8,0.3-1.6,0.7-2.4,1.1c-0.5-0.3-1.1-0.4-1.6-0.5c0,0.1,0.1,0.3,0.1,0.4c0.3,0.1,0.7,0.1,1,0.3
			c-0.2,0.2-0.5,0.3-0.7,0.4c0.1,0.2,0.1,0.3,0.2,0.5c0.6-0.3,1.2-0.7,1.8-1c0.1,0.3-0.1,0.5-0.1,0.8c-0.2,0.6-0.5,1.2-0.9,1.9
			c0.1,0.1,0.2,0.1,0.3,0.2c0.3-0.6,0.7-1.3,0.9-2l0.2-1.2c0.7-0.3,1.3-0.6,2.1-0.8c-0.3,1.8-1,3.4-1.9,4.9c0.1,0.1,0.2,0.1,0.3,0.2
			c0.7-1.2,1.3-2.5,1.7-3.8c0.1-0.4,0.2-0.9,0.3-1.4c0.8-0.3,1.6-0.5,2.4-0.7c0.1,0.6-0.2,1-0.3,1.5c-0.8,1.8-1.7,3.4-2.8,5
			c0.1,0.1,0.2,0.1,0.3,0.2c0.9-1.3,1.7-2.7,2.5-4.2c0.3-0.8,0.7-1.6,0.7-2.6c0.8-0.2,1.6-0.3,2.4-0.2c0,0.5-0.2,0.9-0.4,1.3
			c-1.2,2.2-2.7,4.2-4.2,6.2c0.1,0,0.2,0.1,0.4,0.1c0.2-0.2,0.3-0.4,0.3-0.4c1.6-2.1,3.4-4.4,4.4-6.9c0-0.1,0-0.3,0.2-0.4
			c0.7,0,1.3,0.1,1.9,0.3c0,0.3-0.3,0.6-0.4,0.9c-1.6,2.4-3.5,4.5-5.5,6.7c0.1,0,0.3,0.1,0.4,0.1c2-2.1,3.8-4.2,5.4-6.6
			c0.2-0.4,0.4-0.6,0.5-1c0.9,0.1,1.6,0.5,2.4,0.7c0.1,0.2-0.1,0.2-0.1,0.4c-1.9,2.6-4.6,4.8-7.1,6.8c0.1,0,0.2,0,0.4,0.1
			c0.1,0,0.1,0,0.2,0c2.8-2.3,5.1-4.2,7.2-7c0.7,0.4,1.5,0.6,2.2,1.1c-2.2,2.2-4.7,3.6-7.1,5.4c0.2-0.1,0.6-0.1,0.8-0.1
			c2.3-1.6,4.5-3,6.6-5c0.5,0.3,1.1,0.6,1.5,1v0.1l-1.5,1l-4.6,2.5c-0.2,0.1-0.3,0.2-0.5,0.3l0.8,0c2.2-1.2,4-2.2,6.1-3.5
			c0.4,0.3,0.8,0.7,1.2,1.1V28c-1.9,0.9-3.7,1.6-5.6,2.5c0.3,0,0.4,0.1,0.7,0.1c1.7-0.7,3.7-1.6,5.3-2.2c0.3,0.3,0.7,0.7,0.9,1.2
			c-1.7,0.6-5.2,1.3-5.2,1.3l1,0.2c1.7-0.3,3-0.8,4.6-1.2c0.3,0.3,0.5,0.7,0.7,1.1c-1.3,0.3-2.5,0.6-4,0.6c0.1,0.1,0.4,0.1,0.5,0.2
			c0.3,0.1,1,0.2,1.7,0c0.4-0.1,0.8-0.2,1.2-0.2l0.8-0.2c0,0,0.1,0.2,0.2,0.4c0.1,0.2,0.3,0.5,0.3,0.5l-0.1,0.1
			c-0.9,0.1-2,0.1-2.8,0l0,0c1,0.7,1.9,0.3,3.1,0.3c0.2,0.2,0.2,0.5,0.3,0.8c-0.6,0.1-1.2-0.2-1.7-0.4c-0.1,0-0.1,0.1-0.1,0.1
			c0.5,0.2,0.9,0.8,1.5,0.7l0.4,0c0.3,0.8,0.8,1.5,1,2.4c-1.5,1.2-3,2.5-4.6,3.8c-0.1,0.1-0.3,0.3-0.4,0.5c-1,1.1-1.9,2.3-2.6,3.6
			h0.1c0.5-0.5,1-1,1.6-1.4c0,1-1.2,1.4-1.8,2.2c-0.5,0.5-0.9,1.1-1,1.7c0.6-0.7,1.4-1.3,2.1-1.9c0.1,0.3-0.1,0.5,0,0.8
			c-1.1,0.9-2,1.8-2.6,3.1l0,0.9c0.8-1,1.6-2,2.7-2.9c0.1,0.2,0.1,0.4,0.2,0.6c-1,1-2.2,2.1-2.7,3.5c0.1,0.4,0.3,0.9,0.6,1.2
			c0.2-0.4,0.4-0.8,0.6-1.2c0.6-0.9,1.2-1.7,1.9-2.4c0.2,0.1,0.3,0.3,0.4,0.5c-1,1.1-1.9,2.2-2.3,3.6c0.1,0.3,0.4,0.3,0.6,0.4
			c0.3,0.1,0.6,0.2,0.9,0.2c0.4-1.3,1.2-2.4,2-3.5c0.1,0,0.3,0.1,0.4,0.2l0,0.1c-0.8,1-1.5,2-1.9,3.2c0.1,0.1,0.5,0.1,0.7,0
			c0.5,0,1-0.1,1.5-0.3c0.3-1.1,0.9-2.1,1.6-3c0.2,0,0.4,0,0.5-0.1c-0.2,0.5-0.6,0.8-0.9,1.2c-0.3,0.5-0.7,1-0.8,1.6l0,0
			c0.6-0.2,1.1-0.3,1.6-0.6c0.3-0.6,0.7-1.3,1.1-1.7c0.5-0.6,1.2-1.1,1.9-1.4c0.3,0.3,0.3,0.8,0.4,1.2c0.2,1.4,0.3,2.9,0.2,4.5
			c-0.1,0.3-0.1,0.7-0.4,0.9c-0.4,0.1-0.8,0.2-1.2,0.3c-1.1,1-2.3,1.6-3.6,2c4.5,3.3,15.4,2,23.3,0.6c-0.8-0.2-1.5-0.4-2.2-0.6
			c-1-0.3-1.6-1.3-2.6-1.6c-0.7-0.2-1.5-0.4-1.9-1c-0.7-0.4-1.4-0.7-2.2-1l-3-3c-0.2-0.3-0.4-0.8-0.1-1.1c0.5-0.5,1.1-0.3,1.8-0.4
			c2-0.2,4.2-0.7,5.9-1.7c0.9-0.5,2.2-0.4,2.9-1.3c1-1.1,1.7-2.3,2.7-3.3c0.5-0.5,1.1-1,1.8-1.4c0.8-0.3,1.6-1.2,2.6-0.7
			c0.5,0.3,0.9,0.6,1.3,1l0,0c-0.1-1-1-1.5-1.4-2.3c0-0.2,0-0.3,0-0.5c0-0.1,0.1-0.2,0.1-0.3c0.4-0.5,0.9-0.3,1.4-0.4
			c0.6-0.1,1.3,0.2,2-0.1c-0.3-0.3-0.8-0.3-1.2-0.4c-0.7-0.2-1.5-0.2-2.1-0.6c-0.2-0.5-0.7-0.7-1-0.9c-0.9-0.6-2.4-0.6-3.3-0.1
			c-0.7,0.3-1,1-1.1,1.7c0,0.4,0.1,0.8-0.1,1.2c-0.1,0.2-0.2,0.3-0.3,0.5c-0.3,0.3-0.8,0.4-1.2,0.3c-0.5-0.2-0.9-0.5-1.3-0.7
			c-0.1-0.1-0.2-0.1-0.3-0.2c-1.7-0.8-3.6-1.3-5.5-1.5c0-0.2,0-0.4,0-0.6c0.6,0,1.1,0.2,1.6,0.6c0.5-0.3,1.1-0.4,1.5-0.7l-0.9-1
			c0.2-0.1,0.3-0.6,0.6-0.3l1.3,1c0.6-0.1,1.2-0.2,1.8-0.4c-0.1-0.3-0.3-0.5-0.5-0.8c-0.1-0.2-0.2-0.4-0.3-0.5l0.7-0.2
			c0,0,0.4,0.4,0.9,0.7c0.4,0.3,0.7,0.6,0.7,0.6c0.6-0.1,1-0.4,1.6-0.5l0.1-0.1c0,0,0,0,0-0.1c-0.3-0.5-0.7-0.9-1-1.4l0.7-0.2
			c0,0,0.9,1.1,1.2,1.5c0.1,0.1,0.1,0.2,0.1,0.2c0.4,0,0.8-0.1,1.3-0.2c0.1,0,0.3,0,0.4,0c0.1-0.3-0.1-0.6-0.2-0.8
			c-0.2-0.4-0.5-0.7-0.8-1.1c0.3,0,0.6-0.1,0.9-0.1c0.5,0.6,0.9,1.3,1.2,1.9c0.5,0,1,0.1,1.6,0c0-0.7-0.2-1.4-0.6-2
			c0.1,0,0.3,0,0.5,0c0.5,0.5,1,1.2,1.1,2c0,0,0,0,0,0l0.1,0.1l1.4,0.2l0.1,0c0,0,0-0.1-0.1-0.3c-0.1-0.5-0.3-1.5-0.3-1.5
			c0.1-0.2,0.3,0,0.5,0c0.4,0.4,0.5,0.9,0.6,1.4c0,0.2,0,0.4,0,0.6c0.5,0.2,1.1,0.4,1.6,0.7C73,36,73,35.5,73,35.1
			c0-0.2,0-0.4-0.1-0.6c0.3,0.1,0.5,0.4,0.6,0.6c0.2,0.5,0.3,1.1,0.2,1.6l1.5,0.8c0.1-0.6,0-1.2,0.2-1.7c0.2,0.2,0.7,0.2,0.6,0.7
			c0.1,0.5,0.1,0.9,0,1.4c0.5,0.3,1,0.8,1.6,0.7c0.2-0.3,0.2-0.8,0.3-1.2l0.6,0.3c0.1,0.4-0.2,0.9,0,1.3c0,0.1,0.1,0.3,0.3,0.3
			c0.4,0.2,0.8,0.3,1.3,0.3c0-0.2,0.1-0.4,0.1-0.6c0-0.2,0-0.3,0.1-0.5c0.3-0.1,0.4,0.1,0.5,0.2c0.1,0.1,0.1,0.2,0.1,0.3
			c0.1,0.4-0.2,1,0.4,1.1c0.3,0.1,0.8,0.2,1.2,0.1l0.1-0.1c0-0.3,0-0.7,0-1c0.3,0,0.6,0.3,0.7,0.7c0.1,0.2,0.1,0.5,0.1,0.7
			c0.4,0.3,1,0.4,1.5,0.3c0.1-0.3,0-0.8,0.1-1.1c0.8,0.1,0.4,1.1,1.1,1.3c0.3,0.1,0.8,0.1,1.1,0c-0.1-0.2-0.1-0.6,0-0.8
			c0.1-0.2,0.3-0.3,0.5-0.2c0.3,0.2,0.3,0.6,0.5,0.8c0.5,0,1-0.2,1.4-0.6c0-0.4-0.3-0.8-0.6-1c0.1-0.1,0.3-0.1,0.5-0.1
			c0.2,0,0.4,0,0.6,0c0.1,0,0.2,0.1,0.3,0.1c0,0,0.1,0.1,0.2,0.1c0-0.1,0-0.1,0-0.2c-0.1-1-0.8-1.8-1.6-2.3
			c-1.4-0.7-3.1-0.8-4.6-0.8l0,0.1c-0.6,0-1.3,0-2,0.2v0c0.5,0.2,1,0.3,1.3,0.7c0,0.2-0.1,0.2-0.2,0.2c-1.7,0.1-3.3-0.5-4.8-1.3
			c-0.4-0.2-0.8-0.5-1.2-0.8c-2.2-1.5-4.3-3.1-7.1-3.5c-6-1.1-12.3,0.1-17.1,3.5c-0.2,0.1-0.4,0.3-0.6,0.4c-0.1,0-0.2,0.1-0.3,0.1
			c0-0.2,0.1-0.3,0.2-0.5c0.1-0.2,0.3-0.3,0.4-0.5c-0.1-0.2-0.3-0.1-0.4-0.2c0.2-0.1,0.6-0.1,0.9-0.1l1.3-0.9c0-0.1-0.2-0.1-0.3-0.1
			c-0.3,0-0.6,0-0.9-0.1c0.1-0.1,0.2-0.2,0.3-0.2c0.6-0.2,1.1-0.1,1.7-0.1c0.4-0.2,0.7-0.4,1-0.6c-0.3-0.3-0.8-0.3-1.2-0.4
			c0.3-0.2,0.7-0.2,1-0.2c0.7-0.1,1.3,0.4,1.8-0.2c0.3-0.1,0.6-0.2,0.9-0.3c0,0,0,0,0,0c-0.2-0.2-0.7-0.2-0.9-0.4
			c0.7-0.3,1.5-0.3,2.2,0l0.6-0.3v-0.1c-0.4-0.2-0.8-0.4-1.3-0.6c0.3-0.1,0.6-0.1,0.9-0.1c0.6,0,1.1,0.4,1.6,0.1
			c0.6,0.2,1.3,0.4,1.8,0.8c0.2,0,0.3,0,0.5,0c-0.4-0.5-1.2-0.8-1.8-1l0.1-0.2c-0.5-0.1-1-0.2-1.5-0.1v0c1.1-0.3,2.4-1.1,3.4-0.3
			c0.6,0.5,1.2,1.1,2,1.5c0.2,0,0.4,0,0.6,0c-1-0.7-1.8-1.5-2.8-2.1c0-0.1,0.1-0.1,0.2-0.2c2-0.5,2.8,1.4,4.1,2.3
			c0.2,0,0.5,0.1,0.7,0.1c-1.2-0.8-1.8-2.1-3.1-2.7c0.7-0.2,1.5-0.2,2.2-0.4c0.9,1.3,2.2,2.6,3.6,3.6c0,0,0.1,0,0.2,0
			c0.3,0.1,0.7,0.2,0.7,0.2l0.2,0.1c-0.1,0-0.3-0.2-0.3-0.2c-1.5-0.9-2.8-2.2-3.8-3.6c0.7-0.2,1.4-0.1,2.1-0.2
			c0.7,1.4,1.8,2.7,2.9,3.9c0.3,0.3,0.8,0.8,1.1,1.1c0.4,0.2,0.8,0.4,1.2,0.6l-0.2-0.1c-0.6-0.5-1.1-1-1.7-1.5
			c-1.1-1.1-2.2-2.4-2.9-3.8l0,0c0.9-0.1,1.6,0,2.5-0.1c0.1,0.2,0.1,0.5,0.2,0.7c0.5,1.2,1.2,2.3,2.1,3.2c0.5,0.5,1,1,1.4,1.4
			c0.5,0.4,1.2,1.1,1.7,1.4c0.2,0.1,0.4,0.1,0.7,0.2c-1.1-0.9-2.3-1.9-3.4-3c-0.9-0.9-1.6-1.9-2.2-3.1c-0.1-0.3-0.2-0.5-0.2-0.8
			c0.6,0,1.3,0,2,0.1c0.3,1.5,1.2,2.7,2.3,3.8c0.5,0.5,1,1,1.5,1.5c0.7,0.6,1.4,1.3,2.2,1.8c0.2,0,0.3,0,0.6,0
			c-1.3-1.1-2.6-2.1-3.8-3.3c-0.9-0.9-1.6-1.9-2.2-3c-0.1-0.3-0.2-0.5-0.2-0.8c0.8,0,1.5,0.1,2.2,0.2c0.5,1.4,1.5,2.5,2.5,3.5
			c0.1,0.1,0.1,0.1,0.2,0.2c1.1,1.2,1.9,2,3.2,3.1c0.1,0,0.3,0,0.4,0c-1.1-1.1-2.2-2.2-3.3-3.3c-0.9-1-1.7-2-2.5-3.2
			c0-0.1-0.1-0.2,0-0.3c0.7,0,1.3,0.1,2,0.2c0.6,1.3,1.5,2.4,2.5,3.3c1,0.9,2,1.7,3.1,2.6c0.2,0.2,0.4,0.3,0.6,0.5
			c0.1-0.1,0.3-0.1,0.4-0.2c-1.3-0.9-2.4-1.8-3.5-2.8c-0.8-0.8-1.6-1.6-2.2-2.6c-0.1-0.3-0.3-0.5-0.4-0.7l2.3,0
			c0.9,1.3,2,2.4,3.3,3.3c0.7,0.5,1.4,1,2.1,1.4c0.1-0.1,0.1-0.2,0.2-0.3c-1.1-0.6-2.1-1.4-3.1-2.2c-0.7-0.7-1.5-1.4-2-2.3
			c0.7-0.1,1.6-0.1,2.4-0.2c1,1,2.2,1.8,3.5,2.2c0-0.1,0-0.3,0.1-0.4c-1.1-0.4-2.2-1-3-1.8C88.3,27.4,88.5,27.4,88.6,27.4z
			 M18.1,16.3c-0.3,0-0.6-0.2-0.8-0.4c0.3-0.6,0.8-1,1.5-1l0.3,0.4C18.6,15.6,18.3,15.9,18.1,16.3z M20.5,17.8
			c-0.3-0.1-0.7-0.3-0.9-0.6c0.1-0.5,0.5-0.8,0.7-1.2c0.2,0,0.4,0,0.6,0.1C20.6,16.6,20.6,17.2,20.5,17.8z M55.7,56.9
			c0.1,0.2,0.1,0.4,0,0.6c-0.1,0.2-0.3,0.1-0.5,0.1c-0.9-0.6-1.3-1.6-1.7-2.6C54.5,55.4,55.2,56,55.7,56.9z M56.8,4.4
			c0.2,0,0.4,0.1,0.6,0.1v0.1C57.2,4.8,57,5,56.8,5.2L56.8,4.4z M56.7,6.2c0.3-0.5,0.7-1.1,1.2-1.5c0.8,0.3,1.6,0.5,2.2,1
			c-0.6,1-1.9,1.2-2.7,2c-0.3,0.3-0.6,0.5-1,0.7L56.7,6.2z M56,7c-0.6-1.2-2-1.8-2.7-3l0,0c1,0.2,2.3-0.3,2.9,0.9
			c0,0.8-0.1,1.5-0.2,2.3C56,7.2,56.1,7,56,7z M56.4,9.1c1.1-0.9,2.1-1.8,3.3-2.4l0.8-0.8C60.8,6,61,6.3,61.2,6.5
			c0.3,0.4,0.6,0.8,0.8,1.2c-1.2,0.9-2.6,1.8-4.1,2.3c-0.7,0.4-1.4,0.9-2,1.5C56,10.7,56.2,9.9,56.4,9.1z M55.7,12.3
			c0.9-1.1,2-1.9,3.3-2.3c1.1-0.5,2.1-1.2,3.1-1.9h0.1c0.2,0.7,0.3,1.5,0.2,2.3c-1,0.7-2.2,1.4-3.4,1.8c-1.4,0.6-2.6,1.4-3.9,2.2
			L55.7,12.3z M55,15.2c1.8-1.2,3.6-2.4,5.6-3.1c0.6-0.3,1.1-0.7,1.7-1c-0.1,0.8-0.3,1.5-0.6,2.3c-1.7,0.8-3.4,1.7-5,2.7
			c-0.7,0.4-1.4,0.7-2.2,0.9C54.6,16.4,54.8,15.8,55,15.2z M53.9,18.9c0.1-0.1,0.1-0.3,0.2-0.5l0.3-0.9c1.5-0.6,2.9-1.3,4.3-2.1
			c0.9-0.6,2-1,2.9-1.5l0,0.2l-1.1,2.3c-0.7,0.5-1.5,0.9-2.2,1.3c-1.5,0.7-3.1,1.2-4.5,2.2h-0.1L53.9,18.9z M53.3,20.6
			c2-1.6,4.4-2,6.5-3.3l0,0c-0.4,0.8-1,1.6-1.5,2.4c-1.8,1-3.7,1.5-5.5,2.3C52.9,21.6,53.1,21.1,53.3,20.6z M52.4,22.9
			c1.6-1.2,3.6-1.4,5.3-2.3c-0.3,0.5-0.7,1-1.1,1.5c-1.4,1.1-3.4,1.4-4.9,2.4C52,23.9,52.2,23.4,52.4,22.9z M51.4,25.1
			c1.4-0.8,2.9-1.4,4.4-2.1c-0.3,0.6-0.9,1.2-1.4,1.7c-1.1,0.6-2.3,1-3.5,1.4C51.1,25.8,51.3,25.4,51.4,25.1z M50.7,26.6
			c1-0.3,2-0.7,3-1.1l0,0.1c-0.6,0.6-1.1,1.5-2,1.7c-0.6,0.2-1.1,0.5-1.7,0.7C50.1,27.6,50.4,27.1,50.7,26.6z M48.6,30.5
			c0.4-0.6,0.8-1.3,1.1-1.9c0.5-0.2,1.1-0.4,1.6-0.6v0.1c-0.9,0.9-1.7,1.7-2.7,2.6L48.6,30.5z M45.4,23.2c-1.3-1.2-2.7-2.7-4.3-3.5
			l-0.8-1.1c1.3,0.2,2.3,0.9,3.3,1.6l1.5,1.3C45.3,22,45.4,22.6,45.4,23.2z M44,16.4c0.3,0.6,0.4,1.3,0.6,1.9
			c-0.3-0.1-0.5-0.3-0.8-0.5c-1.7-1-3.7-1.5-5.7-1.6c-0.6-0.5-1.3-1-1.7-1.2C38.3,14.7,41.8,15.4,44,16.4z M43,14.3
			c0.3,0.5,0.6,1,0.8,1.5c-2.3-0.9-5.2-1.5-7.9-1c-0.5-0.3-1.1-0.5-1.7-0.7l0.2-0.1c2.6-0.8,5.7-0.8,8.2,0.1L43,14.3z M41.5,11.9
			c0.4,0.5,0.8,1.1,1.2,1.7c-2.8-0.9-6.2-0.8-9,0.2c-0.3-0.1-0.7-0.2-1-0.3l0.2-0.1c2.1-1,4.3-2,6.9-1.7
			C40.2,11.8,40.9,11.8,41.5,11.9z M41.1,11.4L41.1,11.4c-1.9-0.2-3.9-0.2-5.7,0.5L32,13.3c-1-0.2-2-0.4-3-0.6
			c2.1-0.9,4.2-2.6,6.6-2.8c1.3-0.2,2.8-0.3,4.1-0.2C40.2,10.3,40.7,10.8,41.1,11.4z M24.6,11.7c0.8-0.9,2.3-0.8,3.4-0.6l0,0
			c-0.3-0.4-1-0.8-1.4-1c2.6-0.2,5-1.1,7.5-1.7c1.5-0.3,3-0.3,4.4-0.1C38.8,8.6,39,9,39.3,9.3c-2.1,0.1-4.5,0.2-6.4,1
			c-1.5,0.8-3.1,1.6-4.7,2.3c-1.2-0.2-2.5,0.1-3.5-0.5C24.6,12,24.5,11.8,24.6,11.7z M25.7,22.4c-1-1.2-2.1-2.2-3.3-3.1
			c0.1,0,0.3,0,0.3-0.1c-0.1-1-0.3-1.9,0.1-2.9c0.2-0.1,0.4-0.1,0.6-0.1l0.4,0.7c0.3,0.6,0.4,1.3,0.7,1.9l0.8-0.2
			c0.9,1.3,1.7,2.6,2.4,4C27.1,22.4,26.4,22.4,25.7,22.4z M28.3,22.6l-2.6-4.2c0.2-0.2,0.6-0.3,0.9-0.4c-0.2-0.7-0.4-1.5-0.8-2.2
			c0.1-0.1,0.2,0,0.3,0c2.1,2,3.9,4.5,4.4,7.4C29.7,23,29,22.8,28.3,22.6z M30.8,23.3c-0.3-2.2-1.4-4.1-2.7-5.9
			c0.4-0.3,0.9-0.4,1.4-0.6c-0.1-0.6-0.6-1.2-1.1-1.6c0.1-0.1,0.3-0.2,0.5-0.2c0.6,0.4,1,1,1.2,1.6c0.2,0.1,0.4,0,0.6,0
			c1.3,2.2,1.8,4.8,2.1,7.4C32.1,23.8,31.5,23.6,30.8,23.3z M36.9,26.9c0.1-1.2,0.1-2.7-0.1-4c-0.1-0.3-0.3-0.5-0.5-0.7
			c0.3,1.3,0.3,2.8,0.2,4.3l0,0l-1.3-1c-0.1-2.1-0.3-4.1-1-6c-0.2-0.3-0.4-0.5-0.7-0.7c0.3,0.9,0.6,1.8,0.8,2.7
			c0.2,1.2,0.4,2.5,0.4,3.6c-0.5-0.2-1.1-0.6-1.6-0.9c-0.3-2.7-0.8-5.3-2-7.6h0.6c-0.1-0.5-0.4-1-0.7-1.5c-0.1-0.1-0.3-0.3-0.2-0.4
			c0.9-0.1,1.3,0.9,1.6,1.5l0.1,0.5c0.5,0.2,1.1,0.3,1.6,0.5l0-0.1c-0.1-0.4-0.2-0.8-0.3-1.3c3,2.6,4,6.3,4.8,10l-0.4,2.1L36.9,26.9
			z M38.6,28.5l0.3-1.6l0.9,3.1L38.6,28.5z M39.9,18c-0.4-0.5-0.9-0.9-1.3-1.3c2.2,0.2,4.5,0.9,6.1,2.3c0.1,0.6,0.2,1.1,0.3,1.7
			c-0.5-0.3-1.1-0.8-1.6-1.2C42.4,18.8,41.3,18.2,39.9,18z M40,19.8l0.1-0.1c0.8,0.1,1.5,0.7,2.2,1.1c1.1,0.9,2.2,1.9,3.2,3l0.1,1.3
			c-0.8-0.6-1.6-1.6-2.5-2.3C42.5,21.5,41.1,20.7,40,19.8z M41.3,22.3L41.3,22.3c1.1,0.1,1.9,1,2.7,1.8c0.7,0.6,1.1,1.1,1.7,1.7
			l0,1.5C45,26.4,44,26,43.9,24.8C43.3,23.7,42.3,23,41.3,22.3z M42.1,25.3c0.1-0.2,0.5-0.1,0.6-0.1c0.7,0.2,1.4,0.7,1.7,1.4
			l1.3,1.4l0,1.1l-1.6-1.4c-0.1-0.3,0.1-0.6,0.1-0.9C43.5,26.3,42.7,25.9,42.1,25.3z M42.9,28c0-0.1,0-0.2,0.1-0.2
			c0.5-0.1,0.8,0.3,1.1,0.6l0.1-0.2c0.6,0.5,1.1,0.9,1.7,1.5c0,0.4,0,0.9,0,1.3l-1.6-1.3c-0.1-0.1,0-0.3-0.1-0.5
			C43.7,28.9,43.2,28.5,42.9,28z M43.3,30.4c0-0.2,0.3-0.1,0.4-0.1c0.2,0,0.3,0.1,0.4,0.2l0-0.2c0.6,0.4,1.1,0.8,1.6,1.3l0.1,0.1
			l0,0.9c-0.5-0.2-0.9-0.5-1.4-0.8C44.5,31.1,43.6,31,43.3,30.4z M44,32.6c0.2-0.3,0.7,0.2,0.7-0.2c0.3,0.2,0.6,0.3,0.9,0.5
			c-0.1,0.2-0.3,0.4-0.5,0.6c-0.1-0.1-0.1-0.2-0.2-0.4C44.6,33,44.1,33,44,32.6z M44.8,58.7L44.8,58.7c-0.4-0.8-0.9-1.8-0.4-2.6
			c0.1-0.1,0.2-0.3,0.4-0.4C45.4,56.6,45.4,57.8,44.8,58.7z M49.8,58c-1.1-1.1-2.6-1.8-4-2.6l0.1,0c1.3,0.2,2.7,0.3,3.7,1.3
			c0.2,0.2,0.3,0.5,0.3,0.8C49.9,57.7,49.9,57.9,49.8,58z M50.2,51.7c0.8,0.9,1.7,1.8,2.1,2.9c-0.3,0.2-0.8,0.3-1.2,0.1L51,54.7
			c-1.1-0.1-2.4,0-3.5,0.1c-0.5-0.3-1.1-0.2-1.5-0.6c-0.7-0.5-0.7-1.4-0.9-2.2c-0.1-1-0.3-2.2,0.1-3.1c0.1-0.2,0.3-0.1,0.4-0.2
			l2.1,0.3c-0.1,0.2-0.1,0.5,0,0.7C48.5,50.7,49.5,50.8,50.2,51.7z M65.6,37.2c0.1-0.2,0.3-0.3,0.6-0.3c0.3,0,0.6,0.1,0.8,0.4
			c0.1,0.2,0,0.4-0.2,0.5c-0.4,0.2-0.7,0.1-1.1-0.1C65.6,37.6,65.5,37.4,65.6,37.2z M84.5,13.4c-3.5-0.6-7.1-0.6-10.8-0.7l1.1-1.4
			c0.8-0.1,1.8-0.1,2.7,0c0.9,0.3,1.8,0.4,2.8,0.4c1.2,0,2.4-0.1,3.6-0.3C84.3,12,84.6,12.6,84.5,13.4z M77.9,8.6
			c0.5,0,0.9,0.1,1.4,0.3l-0.1,0.1c-0.8,0-1.6,0.1-2.5-0.1C76.7,8.1,77.5,8.6,77.9,8.6z M80.5,9.1l1.3,0.6c0.7,0.3,1.3,0.8,1.7,1.3
			c-1.8,0.3-4.2,0.5-6-0.1c-0.8-0.1-1.5-0.2-2.3-0.1c0.4-0.5,0.7-1,1.1-1.6C77.8,9.4,79.1,9.3,80.5,9.1z M76.3,8.4
			c0,0.3-0.2,0.5-0.4,0.7c0-0.2-0.2-0.5-0.1-0.7L76.3,8.4z M73.8,8.3l1.4,0c0.2,0.4,0.2,0.8,0.3,1.2c-0.3,0.6-0.8,1.1-1.3,1.7
			C74.1,10.3,74,9.3,73.8,8.3L73.8,8.3z M71.7,8.5c0.5-0.1,1.2-0.1,1.6-0.1c0.3,1.1,0.5,2.2,0.6,3.4L72.7,13h-0.1
			C72.5,11.4,72.2,9.9,71.7,8.5z M73.3,13.1c3.7,0.1,7.5,0,11,0.7l0,0c-0.4,1.1-1.2,1.9-2.1,2.5c-3.2-0.9-6.8-1.5-10.2-1.9
			C72.4,14,72.9,13.5,73.3,13.1z M55.8,28.4c-0.5,0-1,0.1-1.5,0.2v-0.1l1.6-1.3c0.2,0.1,0.4,0.2,0.7,0.2c0.2-0.1,0.3-0.2,0.5-0.3
			c-0.1,0-0.2,0-0.4,0c-0.2-0.1-0.3,0-0.4-0.1c0.5-0.5,0.9-0.7,1.4-1.2c0.4,0.2,0.8,0.3,1.2,0.2c0.1-0.1,0.3-0.1,0.4-0.2
			c-0.2-0.1-1-0.1-1.3-0.2c0-0.2,0.2-0.2,0.4-0.4l0.6-0.4c0.5,0.1,0.9,0.3,1.6,0.3c0.2-0.1,0.3-0.1,0.6-0.3
			c-0.6-0.1-1.2-0.1-1.8-0.3c0.4-0.5,1-0.8,1.6-1.3c1.1-0.2,2.2,0.2,3.1,0.3l0.6-0.3c-0.1,0-0.6,0-1-0.2c-0.6-0.2-1.3-0.3-2-0.3
			c0.4-0.4,1-0.8,1.5-1.1c0.9,0,1.8-0.1,2.6,0.3c0.4,0.1,0.8,0.3,1.2,0.4c0.2,0,0.3-0.1,0.4-0.1l0.3-0.1c-1.2-0.1-2.1-0.9-3.4-0.8
			l-0.5,0c0.4-0.4,0.9-0.7,1.4-1c1.1,0,2.2-0.1,3.3,0.3c0.7,0.2,1.4,0.5,2.1,0.6c0.3-0.1,0.4-0.2,0.6-0.2c-0.9-0.3-1.8-0.4-2.7-0.8
			c-0.9-0.4-1.8-0.3-2.7-0.3c0.6-0.5,1.3-0.9,1.9-1.4c2.2,0.3,4.4,0.8,6.4,1.5c0.1-0.1,0.3-0.1,0.4-0.2c-0.7-0.4-1.4-0.6-2.2-0.8
			c-1.3-0.3-2.7-0.6-4.1-0.9l1.5-1.2c2.7,0.3,5.5,0.7,8,1.7c0.2-0.1,0.2-0.1,0.3-0.1l0.2-0.1c-2.5-1-5.4-1.6-8.1-1.9l0.1-0.1
			l1.5-1.3c3.5,0.3,6.9,0.8,10.2,1.8c-2.4,1.7-5.2,2.6-8,3.7C68.4,22.1,63,24,58.1,27C57.3,27.4,56.5,27.9,55.8,28.4z"/>
		<g>
			<path class="st1" d="M6.8,47.7c-0.1,0.4-0.1,1.1,0,2.6c0.3,4.2,3,7.7,6.5,7.7c2.4,0,4.3-1.3,6-3l0.6,0.6c-2,2.7-4.6,5-8.2,5
				c-7,0-8.5-6.8-8.5-9.7c0-8.7,5.8-11.2,8.9-11.2c3.6,0,7.4,2.3,7.5,7c0,0.3,0,0.5,0,0.8l-0.4,0.3H6.8z M14.6,46.3
				c1.1,0,1.2-0.6,1.2-1.1c0-2.3-1.4-4.1-3.9-4.1c-2.7,0-4.6,2-5.1,5.2H14.6z"/>
			<path class="st1" d="M39.9,56c-2.2,2.5-5.1,4.6-8.6,4.6c-4.6,0-8.8-4.5-8.8-9.2c0-6.4,4.6-11.7,11-11.7c2.3,0,6,0.7,6,3.1
				c0,1-0.6,1.9-1.7,1.9c-1.9,0-1.8-3.6-5.9-3.6c-3.8,0-5.8,4.3-5.8,7.6c0,4.6,2.9,8.6,7.7,8.6c2.3,0,3.7-0.8,5.4-2.1L39.9,56z"/>
			<path class="st1" d="M53,39.7c6.2,0,10.8,4.1,10.8,10.4c0,5.7-4.5,10.5-10.2,10.5c-5.9,0-10.7-4.1-10.7-10.4
				C42.9,44.5,47.1,39.7,53,39.7z M53.6,59.4c4.4,0,6.2-5.1,6.2-8.9c0-3.6-1.9-9.7-6.6-9.7c-4.4,0-6.1,5.1-6.1,8.9
				C47,53.4,48.9,59.4,53.6,59.4z"/>
			<path class="st2" d="M73.6,67.8c0,1.1,1.1,1.1,2.1,1.1h2V70c-1.9,0-3.8-0.1-5.7-0.1c-1.8,0-3.7,0-5.5,0.1v-1.2h1.7
				c1.6,0,1.9-0.8,1.9-1.4v-21c0-3.4-1.3-3.2-2.6-3.8V42c1.7-0.8,3.5-1.6,5.2-2.4c0.1,0,0.3-0.2,0.4-0.2c0.2,0,0.5,0,0.5,0.4v3.1
				c1.7-1.6,4-3.3,6.7-3.3c5,0,8.1,4.8,8.1,9.4c0,6.1-4.8,11.5-10.9,11.5c-1.2,0-2.9-0.4-3.9-0.8V67.8z M77.5,42.6
				c-1.5,0-3.1,0.8-3.9,1.5v12c0.6,1.1,2,3.1,4.7,3.1c4.3,0,6.6-4.4,6.6-8.2C84.9,46.7,82.3,42.6,77.5,42.6z"/>
			<path class="st2" d="M110.9,58.2c-1.2,1.2-2.6,2.4-4.4,2.4c-1.8,0-2.7-1.7-2.7-3.3c-2.1,1.9-4.1,3.3-6.8,3.3
				c-2.8,0-4.8-1.9-4.8-4.3c0.2-3.5,2-4.2,11.6-7.5v-2.9c0-2.5-1.5-3.8-4.3-3.8c-1.9,0-3.3,1.1-3.4,3.1c0,1.2-1.4,1.9-2.5,1.9
				c-0.7,0-0.8-0.6-0.8-0.9c0-2.3,2-3.5,5.1-5c1.5-0.8,2.3-1.4,4-1.4c2,0,5.4,1.3,5.4,3.7v12.3c0,1.8,0.6,2.5,1.6,2.5
				c0.6,0,1.2-0.3,1.6-0.8L110.9,58.2z M103.7,50.1c-2.3,0.9-8,1.9-8,5.2c0,1.7,1.4,3.2,3.1,3.2c2.1,0,3.4-1.3,4.9-2.6V50.1z"/>
			<path class="st2" d="M115.1,53.7c0.6,2.9,2.3,5.4,5.6,5.4c2.6,0,3.6-1.6,3.6-3.1c0-5.2-9.6-3.5-9.6-10.7c0-2.5,2-5.7,6.9-5.7
				c1.4,0,3.3,0.4,5,1.3l0.3,4.5h-1c-0.4-2.8-2-4.4-4.8-4.4c-1.8,0-3.5,1-3.5,2.9c0,5.2,10.3,3.6,10.3,10.5c0,2.9-2.3,6-7.6,6
				c-1.8,0-3.9-0.6-5.4-1.5l-0.5-5.1L115.1,53.7z"/>
			<path class="st2" d="M132.3,53.7c0.6,2.9,2.3,5.4,5.6,5.4c2.6,0,3.6-1.6,3.6-3.1c0-5.2-9.6-3.5-9.6-10.7c0-2.5,2-5.7,6.9-5.7
				c1.4,0,3.3,0.4,5,1.3l0.3,4.5h-1c-0.4-2.8-2-4.4-4.8-4.4c-1.8,0-3.5,1-3.5,2.9c0,5.2,10.3,3.6,10.3,10.5c0,2.9-2.3,6-7.6,6
				c-1.8,0-3.9-0.6-5.4-1.5l-0.5-5.1L132.3,53.7z"/>
		</g>
		<g>
			<path class="st2" d="M7,34.6c0-0.9,0-1.4,0-2.3h1.5c1.1,0,1.8,0.5,1.8,1.4c0,0.9-0.8,1.4-1.7,1.4c-0.2,0-0.4,0-0.5,0
				c0,0.7,0,1.1,0,1.7H6.9C7,35.9,7,35.4,7,34.6z M8,33c0,0.3,0,1,0,1.4c0.1,0,0.2,0,0.2,0c0.7,0,1-0.2,1-0.7c0-0.4-0.3-0.7-1-0.7
				C8.2,33,8.1,33,8,33z"/>
			<path class="st2" d="M15,36.7c0.5-1.1,1.4-3.2,1.9-4.5h1c0.4,1.3,1.2,3.2,1.8,4.5h-1.2c-0.1-0.3-0.3-0.7-0.4-1.1h-1.7
				c-0.1,0.4-0.3,0.8-0.4,1.1H15z M16.7,34.9h1.2c-0.2-0.6-0.4-1.2-0.6-1.7C17.2,33.7,16.9,34.3,16.7,34.9z"/>
			<path class="st2" d="M26.6,36.7h-1.1c0-0.8,0-1.3,0-2.2c0-0.9,0-1.4,0-2.3H27c1.1,0,1.8,0.4,1.8,1.3c0,0.5-0.3,0.9-0.8,1.1
				c0.3,0.5,0.8,1.4,1.1,1.8L28,36.9c-0.3-0.5-0.7-1.3-1-1.9c-0.2,0-0.3,0-0.5,0C26.6,35.6,26.6,36.2,26.6,36.7z M26.6,33
				c0,0.4,0,1,0,1.3c0.1,0,0.2,0,0.3,0c0.6,0,0.9-0.2,0.9-0.7c0-0.4-0.3-0.7-0.9-0.7C26.7,33,26.6,33,26.6,33z"/>
			<path class="st2" d="M34.9,36.7c0-0.8,0.1-1.3,0.1-2.2c0-0.9,0-1.4-0.1-2.3H36c0,0.7,0,1.3,0,2c0.6-0.6,1.4-1.5,1.8-2h1.1
				c-0.5,0.6-1.4,1.5-2,2c0.6,0.7,1.4,1.6,2.1,2.2L38,37c-0.6-0.6-1.4-1.6-2-2.4c0,0.8,0,1.3,0,2.1H34.9z"/>
			<path class="st2" d="M47.3,33.1c-0.3-0.1-0.6-0.2-1-0.2c-0.5,0-0.7,0.2-0.7,0.4c0,0.2,0.1,0.4,0.7,0.6l0.4,0.2
				c0.7,0.3,1,0.7,1,1.3c0,0.8-0.8,1.3-1.7,1.3c-0.6,0-1.1-0.1-1.5-0.3l0.2-0.7c0.3,0.2,0.8,0.3,1.2,0.3c0.5,0,0.7-0.2,0.7-0.5
				c0-0.3-0.1-0.4-0.7-0.7l-0.5-0.2c-0.6-0.2-0.9-0.7-0.9-1.3c0-0.7,0.7-1.3,1.7-1.3c0.5,0,0.9,0.1,1.3,0.2L47.3,33.1z"/>
		</g>
		<rect x="4.8" y="78.1" class="st3" width="140" height="42.5"/>
		<text transform="matrix(1 0 0 1 64.3486 82.291)"><tspan x="0" y="0" class="st2 st4 st5">sydney Scenic Private Tours</tspan><tspan x="53.9" y="6.5" class="st2 st4 st5">lic 18/217</tspan></text>
	</g>
	<polyline class="st3" points="144.8,-39.5 144.8,3 4.8,3 4.8,-39.5 	"/>
</g>
</svg>
