<?xml version="1.0" encoding="utf-8"?>
<!-- Generator: Adobe Illustrator 23.0.2, SVG Export Plug-In . SVG Version: 6.00 Build 0)  -->
<svg version="1.1" id="Layer_1" xmlns="http://www.w3.org/2000/svg" xmlns:xlink="http://www.w3.org/1999/xlink" x="0px" y="0px"
	 viewBox="0 0 1513.6 1198.3" style="enable-background:new 0 0 1513.6 1198.3;" xml:space="preserve">
<style type="text/css">
	.st0{fill:#142643;}
	.st1{fill:#82A5BF;}
	.st2{fill:#0F394B;stroke:#0F394B;stroke-width:0.5;stroke-miterlimit:10;}
	.st3{fill:#FFFFFF;}
	.st4{fill:#BEA692;stroke:#82A5C4;stroke-width:3;stroke-miterlimit:10;}
	.st5{font-family:'AgencyFB-Bold';}
	.st6{font-size:150px;}
	.st7{fill:none;}
</style>
<rect x="-44.6" y="-52.4" class="st0" width="1600" height="1600"/>
<circle class="st1" cx="760" cy="738.2" r="714.7"/>
<circle class="st2" cx="760" cy="738.2" r="696.7"/>
<ellipse class="st0" cx="754.6" cy="1164.2" rx="799.1" ry="289.3"/>
<g>
	<path id="ttower_1_" class="st1" d="M796.8,645.8L796.8,645.8l-16.2-150.2l0,0c0-0.4-0.1-0.8-0.2-1l10.8-116.6c0,0,0-0.1,0-0.1
		c5.3-1.2,11.6-3.4,17.4-7.4l5.7-52.5c0,0-5-5.7-17.5-7.3l-0.7-31h-1.3l-0.1-8.4l1.4,0l0.1-9.5c0,0-6.2-5-23.9-5.5v-17.3h-0.7
		l-1.2-68.3h0.9c0.2,0,0.4-0.2,0.4-0.4v-4.1c0-0.2-0.2-0.4-0.4-0.4c-0.2,0-0.4,0.2-0.4,0.4v3.7h-0.6l-0.1-3.7h-2l-0.1,3.7h-0.6v-3.7
		c0-0.2-0.2-0.4-0.4-0.4c-0.2,0-0.4,0.2-0.4,0.4v4.1c0,0.2,0.2,0.4,0.4,0.4h0.9l-1.2,68.3h-0.7V256c-17.7,0.5-23.9,5.5-23.9,5.5
		l0.1,9.5l1.4,0l-0.1,8.4h-1.3l-0.7,31c-12.6,1.7-17.5,7.3-17.5,7.3l5.7,52.5c5.7,4,12.1,6.2,17.4,7.4c0,0,0,0.1,0,0.1L758,494.5
		c-0.1,0.3-0.1,0.6-0.2,1l-45.5,421.3c0,0.2,0.1,0.4,0.3,0.4h0c0.2,0,0.3-0.1,0.4-0.3l29.2-270.2c0.4,0.3,0.9,0.6,1.6,0.8
		l-25.3,269.3c0,0.2,0.1,0.4,0.3,0.4h0c0.2,0,0.3-0.1,0.4-0.3l25.2-269.1c0.5,0.2,1,0.3,1.5,0.4l-21.9,268.6c0,0.2,0.1,0.4,0.3,0.4
		c0,0,0,0,0,0c0.2,0,0.3-0.1,0.4-0.3l21.9-268.5c0.5,0.1,1.1,0.2,1.6,0.3l-18.8,268.1c0,0.2,0.1,0.4,0.3,0.4c0,0,0,0,0,0
		c0.2,0,0.3-0.1,0.4-0.3l18.8-268c0.5,0.1,1,0.2,1.5,0.2l-15.4,267.7c0,0.2,0.1,0.4,0.3,0.4c0,0,0,0,0,0c0.2,0,0.3-0.1,0.4-0.3
		l15.4-267.7c0.4,0.1,0.9,0.1,1.3,0.2l-12.2,267.4c0,0.2,0.1,0.4,0.3,0.4c0,0,0,0,0,0c0.2,0,0.3-0.2,0.3-0.3l12.2-267.4
		c0.4,0.1,0.9,0.1,1.4,0.1l-10,267.2c0,0.2,0.1,0.4,0.3,0.4c0,0,0,0,0,0c0.2,0,0.3-0.2,0.4-0.3l10-267.2c0.1,0,0.2,0,0.3,0
		l-6.2,267.1c0,0.2,0.2,0.4,0.4,0.4c0.2,0,0.4-0.2,0.4-0.4l6.2-267.1c0.4,0,0.8,0.1,1.3,0.1L755,866.4l-1,1.3v49.1h0.4
		c0,0.2,0.2,0.4,0.4,0.4c0.2,0,0.4-0.2,0.4-0.4h28.2c0,0.2,0.2,0.4,0.4,0.4c0.2,0,0.3-0.2,0.4-0.4h0.4v-49.1l-1-1.3l-2.7-216.5
		c0.4,0,0.9-0.1,1.3-0.1l6.1,267.1c0,0.2,0.2,0.4,0.4,0.4c0.2,0,0.4-0.2,0.4-0.4l-6.2-267.1c0.1,0,0.2,0,0.3,0l10,267.2
		c0,0.2,0.2,0.3,0.4,0.3c0,0,0,0,0,0c0.2,0,0.4-0.2,0.3-0.4l-10-267.2c0.5,0,0.9-0.1,1.4-0.1l12.2,267.4c0,0.2,0.2,0.3,0.3,0.3
		c0,0,0,0,0,0c0.2,0,0.3-0.2,0.3-0.4l-12.2-267.4c0.5-0.1,0.9-0.1,1.3-0.2l15.4,267.7c0,0.2,0.2,0.3,0.4,0.3c0,0,0,0,0,0
		c0.2,0,0.3-0.2,0.3-0.4l-15.4-267.7c0.5-0.1,1-0.2,1.5-0.2l18.8,268c0,0.2,0.2,0.3,0.4,0.3c0,0,0,0,0,0c0.2,0,0.3-0.2,0.3-0.4
		L790,648.8c0.6-0.1,1.1-0.2,1.6-0.3l21.9,268.5c0,0.2,0.2,0.3,0.4,0.3c0,0,0,0,0,0c0.2,0,0.3-0.2,0.3-0.4l-21.9-268.6
		c0.6-0.1,1.1-0.3,1.5-0.4l25.2,269.1c0,0.2,0.2,0.3,0.4,0.3h0c0.2,0,0.3-0.2,0.3-0.4l-25.3-269.3c0.7-0.3,1.2-0.6,1.6-0.8
		l29.2,270.2c0,0.2,0.2,0.3,0.4,0.3h0c0.2,0,0.3-0.2,0.3-0.4L796.8,645.8L796.8,645.8z M747.9,378c0.7,0.2,1.4,0.3,2.1,0.4
		c0,0,0,0.1,0,0.1l6.1,87.4L747.9,378z M750.7,378.5c0.8,0.1,1.5,0.3,2.2,0.3c0,0,0,0,0,0.1l4.1,89.2L750.7,378.5z M753.6,379
		c0.8,0.1,1.5,0.2,2.1,0.2c0,0,0,0,0,0l1.9,88.2L753.6,379z M744.2,643.8c-0.7,0.3-1.3,0.5-1.7,0.8l12.5-115.5L744.2,643.8z
		 M746.4,643.2c-0.6,0.1-1.1,0.3-1.5,0.4l11.6-123.9L746.4,643.2z M748.8,642.7c-0.6,0.1-1.1,0.2-1.6,0.3l11.3-137.7L748.8,642.7z
		 M751,642.3c-0.5,0.1-1,0.1-1.5,0.2l8.3-118.5L751,642.3z M753,642.1c-0.4,0.1-0.9,0.1-1.3,0.2l6.1-105.2L753,642.1z M755.9,641.7
		C755.8,641.7,755.8,641.8,755.9,641.7c-0.1,0-0.1,0-0.2,0l0.4-10.7L755.9,641.7z M755,641.8c-0.5,0-0.9,0.1-1.3,0.1l4.4-96.4
		l-0.8,36L755,641.8z M756.6,641.7l1.4-60l0.8-22.1l-1,82C757.4,641.6,757,641.6,756.6,641.7z M759.3,861.9h-3v2.7l-0.6,0.8
		l2.7-215.5c0.3,0,0.6,0,0.9,0.1V861.9z M759.3,641.4c-0.3,0-0.6,0.1-0.8,0.1l0.8-66.7V641.4z M759.1,532.2l0.1-2.2l0,1.3
		L759.1,532.2z M759.3,493.9h-0.4l-0.1-6.1l-2.4-108.6c1.8,0.1,2.9,0.1,2.9,0.1V493.9z M790.5,378l-8.1,87.9l6.1-87.4
		c0,0,0-0.1,0-0.1C789.1,378.3,789.8,378.1,790.5,378z M787.7,378.5l-6.3,89.6l4.1-89.2c0,0,0,0,0-0.1
		C786.2,378.8,787,378.7,787.7,378.5z M784.8,379l-4,88.5l1.9-88.2c0,0,0,0,0,0C783.3,379.1,784.1,379,784.8,379z M779.1,379.3
		c0,0,1.1,0,2.9-0.1l-2.4,108.6l-0.1,6.1h-0.4V379.3z M779.3,532.2l0-0.9l0-1.3L779.3,532.2z M779.1,574.8l0.8,66.7
		c-0.3,0-0.5-0.1-0.8-0.1V574.8z M782.7,865.5l-0.6-0.8v-2.7h-3V650.1c0.3,0,0.6,0,0.9-0.1L782.7,865.5z M780.6,641.5l-1-82
		l0.8,22.1l1.4,60C781.4,641.6,781,641.6,780.6,641.5z M782.6,641.8C782.6,641.8,782.6,641.7,782.6,641.8l-0.3-10.7L782.6,641.8
		C782.7,641.8,782.6,641.8,782.6,641.8z M783.4,641.8l-2.2-60.2l-0.8-36l4.4,96.4C784.3,641.9,783.8,641.9,783.4,641.8z
		 M785.4,642.1l-4.8-105l6.1,105.2C786.3,642.2,785.9,642.1,785.4,642.1z M787.4,642.3l-6.8-118.2l8.3,118.5
		C788.4,642.5,787.9,642.4,787.4,642.3z M789.6,642.7L780,505.3L791.2,643C790.7,642.9,790.2,642.8,789.6,642.7z M792,643.2
		l-10.1-123.5l11.6,123.9C793,643.4,792.5,643.3,792,643.2z M794.2,643.8l-10.8-114.6L796,644.7C795.5,644.4,795,644.1,794.2,643.8z
		"/>
	<g>
		<path class="st3" d="M601.3,866.6c0,9.6-0.9,19-2.6,28.2H472.8l-11.6-34.3L413.7,720c11.7-2.9,24-4.5,36.6-4.5
			c22.8,0,44.4,5.1,63.8,14.1c49.8,23.2,84.8,72.8,87.1,130.8C601.3,862.4,601.3,864.5,601.3,866.6z"/>
	</g>
	<g>
		<path class="st3" d="M931.3,720.5l-22.6,50.4l-14.9,33.3l-25.2,56.2l-15.4,34.3H709.5c-0.4-4.7-0.6-9.4-0.6-14.2
			c0-6.8,0.4-13.5,1.2-20.1c5-41.9,25.3-79.1,55.2-105.8c29.8-26.7,69.2-42.9,112.4-42.9C896.4,711.8,914.5,714.8,931.3,720.5z"/>
	</g>
	<g>
		<path class="st3" d="M1094.2,764.5l-54.1,69.1l-21,26.8l-26.9,34.3H889.7c2.4-12,6.1-23.4,11-34.3c4.2-9.6,9.4-18.7,15.3-27.3
			c14.2-20.6,32.8-37.9,54.5-50.5c24.9-14.4,53.8-22.7,84.6-22.7C1068.5,759.9,1081.6,761.5,1094.2,764.5z"/>
	</g>
	<g>
		<path class="st3" d="M1071.5,894.7H963.2l-26.3-34.3L916,833.1l-22.2-28.9l-22.3-29.1c12.1-2.8,24.5-4.2,37.2-4.2
			c14,0,28.1,1.7,42.3,5.4c6.7,1.7,13.2,3.8,19.5,6.3c27.9,10.9,51.6,28.7,69.5,51c6.8,8.4,12.7,17.4,17.8,26.8
			C1063.6,871.3,1068.2,882.8,1071.5,894.7z"/>
	</g>
	<g>
		<path class="st3" d="M670.7,828.4c0,11-1.2,21.6-3.4,31.9c-2.4,11.3-6.1,22.1-10.9,32.2c-0.3,0.7-0.7,1.4-1,2.1H543.6l-6.1-34.3
			l-23.4-130.8l-9.2-51.5c4.9-0.5,9.8-0.7,14.8-0.7c30.6,0,59.2,9.1,83,24.8C643.6,729.2,670.7,775.7,670.7,828.4z"/>
	</g>
	<g>
		<path class="st3" d="M777.9,828.4c0,10.8-0.8,21.5-2.3,31.9c-1.6,10.8-3.9,21.4-7,31.7c-0.5,1.6-2,2.7-3.6,2.7H657l-0.6-2.1
			l-9.1-32.2l-44.7-158.2l-25.1-88.8c-0.7-2.5,1.3-5,4-4.7c85.3,9.5,156,67.6,183.7,145.9C773.4,777.7,777.9,802.6,777.9,828.4z"/>
	</g>
	<polyline class="st3" points="365.9,919.3 365.9,860.4 1123.9,860.4 1123.9,919.3 	"/>
	<polyline class="st3" points="1094.2,869.4 1094.2,836.6 393.1,836.6 393.1,869.4 	"/>
</g>
<path class="st4" d="M760.3,916.9c262.7,0,499.4,31.4,666.1,81.7C1276.1,924.2,1033.7,876,760.3,876S244.4,924.2,94.2,998.6
	C260.9,948.3,497.6,916.9,760.3,916.9z"/>
<text id="Sydney_Scenic_Private_Tours" transform="matrix(1 0 0 1 28.9402 1159.5521)" class="st1 st5 st6">Sydney Scenic Private Tours </text>
<rect x="61.6" y="1159.6" class="st7" width="385.9" height="312.2"/>
</svg>
