<svg xmlns="http://www.w3.org/2000/svg" viewBox="0 0 1600 1600"><defs><style>.cls-1{fill:#142643;}.cls-2,.cls-6{fill:#82a5bf;}.cls-3{fill:#0f394b;stroke:#0f394b;stroke-width:0.5px;}.cls-3,.cls-5{stroke-miterlimit:10;}.cls-4{fill:#fff;}.cls-5{fill:#bea692;stroke:#82a5c4;stroke-width:3px;}.cls-6{font-size:150px;font-family:AgencyFB-Bold, Agency FB;font-weight:700;}</style></defs><title>Asset 1</title><g id="Layer_2" data-name="Layer 2"><g id="Layer_1-2" data-name="Layer 1"><rect class="cls-1" width="1600" height="1600"/><circle class="cls-2" cx="804.61" cy="790.6" r="714.68"/><circle class="cls-3" cx="804.61" cy="790.6" r="696.73"/><ellipse class="cls-1" cx="799.13" cy="1216.59" rx="799.13" ry="289.26"/><path id="ttower" class="cls-2" d="M841.36,698.14h0L825.12,547.93h0a9.66,9.66,0,0,0-.15-1l10.8-116.59a.22.22,0,0,0,0-.11,50.19,50.19,0,0,0,17.36-7.44l5.66-52.53s-4.95-5.66-17.55-7.31l-.7-31h-1.3l-.13-8.44,1.43,0,.11-9.54s-6.22-5-23.93-5.49V291.15H816l-1.16-68.27h.94a.36.36,0,0,0,.35-.35v-4.1a.37.37,0,0,0-.35-.36.36.36,0,0,0-.36.36v3.75h-.59l-.05-3.75h-2l-.06,3.75h-.59v-3.75a.36.36,0,0,0-.35-.36.37.37,0,0,0-.36.36v4.1a.36.36,0,0,0,.36.35h.93l-1.16,68.27h-.7v17.27c-17.71.51-23.93,5.49-23.93,5.49l.12,9.54,1.42,0-.13,8.44H787l-.71,31c-12.6,1.65-17.55,7.31-17.55,7.31l5.66,52.53a50.19,50.19,0,0,0,17.36,7.44.41.41,0,0,0,0,.11l10.8,116.59c-.05.26-.11.59-.16,1l-45.55,421.3a.37.37,0,0,0,.31.39h0a.37.37,0,0,0,.36-.31L786.79,699.1a6.49,6.49,0,0,0,1.6.84L763.12,969.23a.35.35,0,0,0,.31.39h0a.38.38,0,0,0,.36-.32l25.25-269.12c.45.16.95.31,1.51.45L768.65,969.24a.35.35,0,0,0,.32.38h0a.35.35,0,0,0,.35-.32L791.3,700.8c.51.12,1.06.24,1.64.35L774.19,969.24a.34.34,0,0,0,.32.38h0a.36.36,0,0,0,.36-.32l18.75-268,1.52.25L779.73,969.24a.35.35,0,0,0,.32.38h0a.36.36,0,0,0,.36-.34l15.42-267.65,1.34.18L785,969.26a.34.34,0,0,0,.32.36h0a.34.34,0,0,0,.34-.34L797.9,701.9l1.37.15-10,267.21a.35.35,0,0,0,.34.36h0a.37.37,0,0,0,.36-.34l10-267.16.27,0-6.16,267.12a.37.37,0,0,0,.36.36.34.34,0,0,0,.35-.35L801,702.21l1.27.1-2.66,216.51-1,1.32v49.13h.37a.36.36,0,0,0,.35.35.35.35,0,0,0,.36-.35h28.24a.36.36,0,0,0,.71,0H829V920.14l-1-1.32-2.67-216.51,1.28-.1,6.15,267.06a.35.35,0,0,0,.36.35.37.37,0,0,0,.35-.36L827.3,702.14l.26,0,10,267.16a.35.35,0,0,0,.35.34h0a.34.34,0,0,0,.34-.36l-10-267.21,1.38-.15,12.23,267.38a.34.34,0,0,0,.33.34h0a.35.35,0,0,0,.33-.36L830.34,701.81l1.34-.18,15.43,267.65a.35.35,0,0,0,.35.34h0a.34.34,0,0,0,.32-.38L832.37,701.53l1.52-.25,18.76,268a.35.35,0,0,0,.35.32h0a.34.34,0,0,0,.32-.38L834.6,701.15c.59-.11,1.13-.23,1.65-.35l21.94,268.5a.35.35,0,0,0,.35.32h0a.36.36,0,0,0,.33-.38L837,700.63c.55-.14,1-.29,1.51-.45L863.72,969.3a.36.36,0,0,0,.35.32h0a.35.35,0,0,0,.31-.39L839.16,699.94a6.58,6.58,0,0,0,1.59-.84L870,969.31a.35.35,0,0,0,.35.31h0a.36.36,0,0,0,.31-.39L841.36,698.14ZM792.48,430.35c.71.16,1.39.3,2,.42a.31.31,0,0,0,0,.09l6.11,87.39Zm2.74.54c.78.14,1.53.25,2.22.34a.17.17,0,0,0,0,.07l4.06,89.19Zm2.92.44c.78.08,1.48.17,2.12.21a0,0,0,0,0,0,0l1.93,88.24Zm-9.4,264.89A8,8,0,0,0,787,697l12.48-115.46Zm2.27-.67c-.55.13-1.07.27-1.54.42l11.62-123.88Zm2.36-.49c-.57.1-1.12.21-1.64.33L803,557.64Zm2.19-.36-1.47.23,8.29-118.46Zm2-.27-1.26.16,6.07-105.18Zm2.91-.32-.07,0h-.08l.39-10.74Zm-.86.1-1.34.14,4.41-96.41-.82,36Zm1.57-.18,1.38-60,.82-22.07-1,82Zm2.73,220.28h-3v2.74l-.59.79L803,702.37l.92.06Zm0-220.55-.82.09.82-66.69Zm-.22-109.19.06-2.19v1.25Zm.22-38.29h-.43l-.12-6.06L801,431.61c1.84.13,2.93.11,2.93.11Zm31.18-115.93-8.14,87.9,6.1-87.39a.31.31,0,0,0,0-.09C833.68,430.65,834.36,430.51,835.06,430.35Zm-2.74.54-6.26,89.6,4.05-89.19a.17.17,0,0,0,0-.07C830.79,431.14,831.54,431,832.32,430.89Zm-2.92.44-4,88.49,1.92-88.24a.06.06,0,0,0,0,0C827.92,431.5,828.63,431.41,829.4,431.33Zm-5.73.39s1.09,0,2.93-.11l-2.38,108.61-.13,6.06h-.42Zm.21,152.85,0-.94v-1.25Zm-.21,42.59.82,66.69-.82-.09Zm3.59,290.68-.59-.79v-2.74h-3V702.43l.92-.06Zm-2-223.94-1-82L825,634l1.39,60Zm2,.23-.07,0-.24-10.71.4,10.74Zm.79.08L825.72,634l-.82-36,4.41,96.41Zm2,.22-4.8-105,6.06,105.18Zm2,.27-6.81-118.23,8.28,118.46Zm2.19.36-9.61-137.42,11.25,137.75C835.29,695.27,834.75,695.16,834.17,695.06Zm2.36.49L826.45,572.09,838.07,696C837.6,695.82,837.09,695.68,836.53,695.55Zm2.28.67L828.05,581.58,840.53,697A8.16,8.16,0,0,0,838.81,696.22Z"/><path class="cls-4" d="M645.89,918.92a151.92,151.92,0,0,1-2.62,28.17H517.33l-11.61-34.33L458.24,772.33A151.06,151.06,0,0,1,645.77,912.76C645.85,914.8,645.89,916.86,645.89,918.92Z"/><path class="cls-4" d="M975.91,772.87l-22.62,50.4-14.92,33.25-25.23,56.24-15.4,34.33H754q-.59-7-.59-14.19a171.54,171.54,0,0,1,1.19-20.14A168.9,168.9,0,0,1,975.91,772.87Z"/><path class="cls-4" d="M1138.77,816.83l-54.13,69.09-21,26.84-26.9,34.33H934.32a168.07,168.07,0,0,1,26.23-61.62,169,169,0,0,1,178.22-68.64Z"/><path class="cls-4" d="M1116.12,947.09H1007.78l-26.31-34.33-20.92-27.29-22.18-29L916.1,827.46a168.8,168.8,0,0,1,168.54,58.46,169.92,169.92,0,0,1,31.48,61.17Z"/><path class="cls-4" d="M715.3,880.82a152.08,152.08,0,0,1-3.38,31.94A150.47,150.47,0,0,1,701,945c-.33.71-.67,1.41-1,2.1H588.22l-6.15-34.33L558.65,782l-9.23-51.49q7.32-.72,14.82-.72A151,151,0,0,1,715.3,880.82Z"/><path class="cls-4" d="M822.45,880.82a222.88,222.88,0,0,1-2.29,31.94,220.09,220.09,0,0,1-7,31.67,3.77,3.77,0,0,1-3.61,2.66H701.62L701,945l-9.12-32.23L647.2,754.56l-25.09-88.75a3.74,3.74,0,0,1,4-4.75c85.33,9.51,156,67.57,183.75,145.94A220.82,220.82,0,0,1,822.45,880.82Z"/><polyline class="cls-4" points="410.46 971.71 410.46 912.75 1168.48 912.75 1168.48 971.71"/><polyline class="cls-4" points="1138.77 921.77 1138.77 888.98 437.67 888.98 437.67 921.77"/><path class="cls-5" d="M804.86,969.31c262.66,0,499.43,31.4,666.14,81.67-150.28-74.37-392.68-122.65-666.14-122.65S289,976.61,138.73,1051C305.44,1000.71,542.2,969.31,804.86,969.31Z"/><text id="Sydney_Scenic_Private_Tours" data-name="Sydney Scenic Private Tours" class="cls-6" transform="translate(73.51 1211.93)">Sydney Scenic Private Tours </text><text/></g></g></svg>