<svg xmlns="http://www.w3.org/2000/svg" viewBox="0 0 130 130"><defs><style>.cls-1{fill:#82a5c4;}.cls-2{fill:#0f394b;}.cls-3{fill:#420a09;}.cls-4{fill:#fff;}</style></defs><title>Artboard 1trip_advisor_icon</title><g id="blue"><circle class="cls-1" cx="65" cy="65" r="62"/><path class="cls-1" d="M65,4A61,61,0,1,1,4,65,61.06,61.06,0,0,1,65,4m0-2a63,63,0,1,0,63,63A63,63,0,0,0,65,2Z"/></g><g id="Layer_5" data-name="Layer 5"><ellipse class="cls-2" cx="70.5" cy="62" rx="38.5" ry="32"/><circle class="cls-3" cx="65" cy="65" r="58"/><path d="M68.71,74.84a6.66,6.66,0,0,0,.66,1c6.24,6.27,14.64,6.86,21.57,1.52a15.72,15.72,0,0,0,3.28-20.69,2.51,2.51,0,0,1-.13-2c.67-1.71,1.54-3.35,2.39-5.15-3,0-5.83,0-8.68,0a5.9,5.9,0,0,1-2.66-.65A38.29,38.29,0,0,0,70.1,44c-8.21-.82-16.12.13-23.49,4a11.29,11.29,0,0,1-6.19,1.57c-2.09-.14-4.19,0-6.39,0,.84,1.63,1.51,3,2.25,4.39A3.17,3.17,0,0,1,36,57.39,15.63,15.63,0,0,0,58.5,78c1.21-.85,2.29-1.9,3.48-2.91L65.25,80Z"/><path class="cls-4" d="M68.71,74.84,65.25,80,62,75.12c-1.19,1-2.27,2.06-3.48,2.91A15.63,15.63,0,0,1,36,57.39a3.17,3.17,0,0,0,.25-3.45c-.74-1.36-1.41-2.76-2.25-4.39,2.2,0,4.3-.11,6.39,0A11.29,11.29,0,0,0,46.61,48C54,44.12,61.89,43.17,70.1,44a38.29,38.29,0,0,1,15,4.82,5.9,5.9,0,0,0,2.66.65c2.85.08,5.71,0,8.68,0-.85,1.8-1.72,3.44-2.39,5.15a2.51,2.51,0,0,0,.13,2,15.72,15.72,0,0,1-3.28,20.69C84,82.65,75.61,82.06,69.37,75.79A6.66,6.66,0,0,1,68.71,74.84Zm24.78-9.72A12.5,12.5,0,0,0,80.78,52.65a12.52,12.52,0,0,0,.29,25A12.45,12.45,0,0,0,93.49,65.12Zm-56.35-.21A12.52,12.52,0,1,0,49.85,52.63,12.5,12.5,0,0,0,37.14,64.91Zm28.18-2.33c1.77-6.89,6-11.86,14.68-13.29a39.8,39.8,0,0,0-29-.09C58.53,50.49,63.26,54.8,65.32,62.58Z"/><path class="cls-3" d="M93.49,65.12A12.45,12.45,0,0,1,81.07,77.69,12.52,12.52,0,1,1,93.49,65.12ZM80.9,72.72a7.73,7.73,0,1,0-7.72-7.91A7.75,7.75,0,0,0,80.9,72.72Z"/><path class="cls-3" d="M37.14,64.91A12.52,12.52,0,1,1,49.26,77.63,12.51,12.51,0,0,1,37.14,64.91Zm12.34-7.64A7.73,7.73,0,1,0,57.19,65,7.74,7.74,0,0,0,49.48,57.27Z"/><path class="cls-3" d="M65.32,62.58C63.26,54.8,58.53,50.49,51,49.2a39.8,39.8,0,0,1,29,.09C71.36,50.72,67.09,55.69,65.32,62.58Z"/><path class="cls-4" d="M80.9,72.72a7.73,7.73,0,1,1,7.84-7.62A7.79,7.79,0,0,1,80.9,72.72Zm-5-7.86A5,5,0,1,0,86,65.12a5,5,0,1,0-10.07-.26Z"/><path class="cls-4" d="M49.48,57.27a7.73,7.73,0,0,1,0,15.46,7.73,7.73,0,1,1,0-15.46Zm5,7.71a5.07,5.07,0,0,0-5.06-5.07A5.09,5.09,0,1,0,54.47,65Z"/><path class="cls-3" d="M75.92,64.86a5,5,0,1,1,4.91,5.22A5.09,5.09,0,0,1,75.92,64.86ZM81,62.44A2.56,2.56,0,1,0,81,67.55a2.55,2.55,0,0,0,2.51-2.45A2.53,2.53,0,0,0,81,62.44Z"/><path class="cls-3" d="M54.47,65a5.11,5.11,0,0,1-5,5.1,5.09,5.09,0,0,1,0-10.17A5.07,5.07,0,0,1,54.47,65Zm-5,2.6a2.58,2.58,0,1,0-2.63-2.51A2.6,2.6,0,0,0,49.5,67.58Z"/><path class="cls-4" d="M81,62.44a2.53,2.53,0,0,1,2.44,2.66A2.55,2.55,0,0,1,81,67.55,2.56,2.56,0,1,1,81,62.44Z"/><path class="cls-4" d="M49.5,67.58A2.58,2.58,0,1,1,52,64.92,2.6,2.6,0,0,1,49.5,67.58Z"/></g></svg>