<svg xmlns="http://www.w3.org/2000/svg" viewBox="0 0 130 130"><defs><style>.cls-1{fill:#82a5c4;}.cls-2{fill:#fff;}.cls-3{fill:#420a09;}.cls-4{fill:#0f394b;}</style></defs><title>Artboard 1trip_advisor_logo</title><g id="blue"><circle class="cls-1" cx="65" cy="65" r="62"/><path class="cls-1" d="M65,4A61,61,0,1,1,4,65,61.06,61.06,0,0,1,65,4m0-2a63,63,0,1,0,63,63A63,63,0,0,0,65,2Z"/></g><g id="red"><circle class="cls-2" cx="65" cy="65" r="59"/><path class="cls-3" d="M65,7A58,58,0,1,1,7,65,58.07,58.07,0,0,1,65,7m0-2a60,60,0,1,0,60,60A60,60,0,0,0,65,5Z"/></g><g id="teal"><circle class="cls-4" cx="65" cy="65" r="58"/><path d="M67.71,77.84a6.66,6.66,0,0,0,.66,1c6.24,6.27,14.64,6.86,21.57,1.52a15.72,15.72,0,0,0,3.28-20.69,2.51,2.51,0,0,1-.13-2c.67-1.71,1.54-3.35,2.39-5.15-3,0-5.83,0-8.68,0a5.9,5.9,0,0,1-2.66-.65A38.29,38.29,0,0,0,69.1,47c-8.21-.82-16.12.13-23.49,4a11.29,11.29,0,0,1-6.19,1.57c-2.09-.14-4.19,0-6.39,0,.84,1.63,1.51,3,2.25,4.39A3.17,3.17,0,0,1,35,60.39,15.63,15.63,0,0,0,57.5,81c1.21-.85,2.29-1.9,3.48-2.91L64.25,83Z"/><path class="cls-2" d="M67.71,77.84,64.25,83,61,78.12c-1.19,1-2.27,2.06-3.48,2.91A15.63,15.63,0,0,1,35,60.39a3.17,3.17,0,0,0,.25-3.45c-.74-1.36-1.41-2.76-2.25-4.39,2.2,0,4.3-.11,6.39,0A11.29,11.29,0,0,0,45.61,51C53,47.12,60.89,46.17,69.1,47a38.29,38.29,0,0,1,15,4.82,5.9,5.9,0,0,0,2.66.65c2.85.08,5.71,0,8.68,0-.85,1.8-1.72,3.44-2.39,5.15a2.51,2.51,0,0,0,.13,2,15.72,15.72,0,0,1-3.28,20.69C83,85.65,74.61,85.06,68.37,78.79A6.66,6.66,0,0,1,67.71,77.84Zm24.78-9.72A12.5,12.5,0,0,0,79.78,55.65a12.52,12.52,0,0,0,.29,25A12.45,12.45,0,0,0,92.49,68.12Zm-56.35-.21A12.52,12.52,0,1,0,48.85,55.63,12.5,12.5,0,0,0,36.14,67.91Zm28.18-2.33c1.77-6.89,6-11.86,14.68-13.29a39.8,39.8,0,0,0-29-.09C57.53,53.49,62.26,57.8,64.32,65.58Z"/><path class="cls-4" d="M92.49,68.12A12.45,12.45,0,0,1,80.07,80.69,12.52,12.52,0,1,1,92.49,68.12ZM79.9,75.72a7.73,7.73,0,1,0-7.72-7.91A7.75,7.75,0,0,0,79.9,75.72Z"/><path class="cls-4" d="M36.14,67.91A12.52,12.52,0,1,1,48.26,80.63,12.51,12.51,0,0,1,36.14,67.91Zm12.34-7.64A7.73,7.73,0,1,0,56.19,68,7.74,7.74,0,0,0,48.48,60.27Z"/><path class="cls-4" d="M64.32,65.58C62.26,57.8,57.53,53.49,50,52.2a39.8,39.8,0,0,1,29,.09C70.36,53.72,66.09,58.69,64.32,65.58Z"/><path class="cls-2" d="M79.9,75.72a7.73,7.73,0,1,1,7.84-7.62A7.79,7.79,0,0,1,79.9,75.72Zm-5-7.86A5,5,0,1,0,85,68.12a5,5,0,1,0-10.07-.26Z"/><path class="cls-2" d="M48.48,60.27a7.73,7.73,0,0,1,0,15.46,7.73,7.73,0,1,1,0-15.46Zm5,7.71a5.07,5.07,0,0,0-5.06-5.07A5.09,5.09,0,1,0,53.47,68Z"/><path class="cls-4" d="M74.92,67.86a5,5,0,1,1,4.91,5.22A5.09,5.09,0,0,1,74.92,67.86ZM80,65.44A2.56,2.56,0,1,0,80,70.55a2.55,2.55,0,0,0,2.51-2.45A2.53,2.53,0,0,0,80,65.44Z"/><path class="cls-4" d="M53.47,68a5.11,5.11,0,0,1-5,5.1,5.09,5.09,0,0,1,0-10.17A5.07,5.07,0,0,1,53.47,68Zm-5,2.6a2.58,2.58,0,1,0-2.63-2.51A2.6,2.6,0,0,0,48.5,70.58Z"/><path class="cls-2" d="M80,65.44a2.53,2.53,0,0,1,2.44,2.66A2.55,2.55,0,0,1,80,70.55,2.56,2.56,0,1,1,80,65.44Z"/><path class="cls-2" d="M48.5,70.58A2.58,2.58,0,1,1,51,67.92,2.6,2.6,0,0,1,48.5,70.58Z"/></g></svg>